# xmcd CD database file
#
# Track frame offsets:
#	150
#	13340
#	25727
#	40640
#	53902
#	67985
#	79884
#	93922
#	107027
#	119590
#	131820
#	143676
#	156639
#	167795
#	178877
#	194673
#	206924
#	218527
#	232961
#	247209
#
# Disc length: 3467 seconds
#
# Revision: 0
# Processed by: cddbd v1.5.2PL0 Copyright (c) Steve Scherf et al.
# Submitted via: CDex 1.70beta2
#
DISCID=2a0d8914
DTITLE=Franck Sinatra - The shadow of Franck Sinatra CD1
DYEAR=2008
DGENRE=Jazz
TTITLE0=Come Fly With me
TTITLE1=All Of Me
TTITLE2=A Fellow Needs A Girl
TTITLE3=Ho wDeep Is The Ocean
TTITLE4=Laura
TTITLE5=A Foggy Day
TTITLE6=A Ghost Of Chance
TTITLE7=Dancing On The Ceiling
TTITLE8=Deep In A Dream
TTITLE9=How Cute Can You Be
TTITLE10=I Concentrate On You
TTITLE11=I Don't Know Why
TTITLE12=I Thought About You
TTITLE13=I Wish I Were In Love Again
TTITLE14=I've Got You Under My Skin
TTITLE15=In The Wee Small Hours Of The Morning
TTITLE16=If I Had You
TTITLE17=Last Night When We Were Young
TTITLE18=Like Someone In Love
TTITLE19=Little Girl Blue
EXTD=YEAR: 2008
EXTT0=
EXTT1=
EXTT2=
EXTT3=
EXTT4=
EXTT5=
EXTT6=
EXTT7=
EXTT8=
EXTT9=
EXTT10=
EXTT11=
EXTT12=
EXTT13=
EXTT14=
EXTT15=
EXTT16=
EXTT17=
EXTT18=
EXTT19=
PLAYORDER=
